<?xml version="1.0" standalone="no"?>
<svg viewBox="0 0 200 200" xmlns="http://www.w3.org/2000/svg">
  <path fill="#8A3FFC" d="M27.4,-49.3C40,-40.2,57.7,-41.9,58.3,-35.4C59,-29,42.6,-14.5,40.7,-1.1C38.8,12.3,51.4,24.6,51.4,32.2C51.4,39.8,38.8,42.6,28.2,49.2C17.5,55.8,8.8,66.1,-3.2,71.6C-15.2,77.2,-30.4,78.1,-40.9,71.4C-51.4,64.8,-57.2,50.6,-64.5,37.4C-71.7,24.2,-80.4,12.1,-79.4,0.6C-78.4,-11,-67.7,-21.9,-59.2,-33C-50.8,-44.1,-44.6,-55.4,-35.2,-66.3C-25.7,-77.2,-12.8,-87.7,-2.7,-83C7.4,-78.3,14.8,-58.4,27.4,-49.3Z" transform="translate(100 100)" />
</svg>
