<svg width="320" height="450" xmlns="http://www.w3.org/2000/svg">
 <!-- Created with Method Draw - http://github.com/duopixel/Method-Draw/ -->

 <g id="Layer_1">
  <title>Layer 1</title>
  <g stroke="null" id="svg_53">
   <g stroke="null" transform="matrix(0.9960869449844104,0,0,1.0029464867293878,-1610.8209509481114,-2280.8657977386674) " id="svg_52">
    <title stroke="null" transform="translate(1575.266845703125,0) translate(0,2245.340576171875) ">Layer 1</title>
    <path stroke="null" d="m1932.24874,2523.19969c-5,-11.5 -12.7,-21.6 -28.1,-30.1a98.14691,98.14691 0 0 0 -25.4,-10a62.21919,62.21919 0 0 0 16.3,-11a56.36778,56.36778 0 0 0 15.6,-23.3a77.109,77.109 0 0 0 3.5,-28.2c-1.1,-16.8 -4.4,-33.1 -13.2,-44.8s-21.2,-20.7 -37.6,-27c-12.6,-4.8 -25.5,-7.8 -45.5,-8.9l0,-63.9l-40,25l0,39l-32,0l0,-41l-41,-23l0,64l-87.1,0l28,48c8.65,0.01 14.51,0.81 17.5,2.3a13.22451,13.22451 0 0 1 6.5,6c1.3,2.5 1.9,8.4 1.9,17.5l0,173.2c0,9 -0.6,14.8 -1.9,17.4s-2,4.9 -5.1,6.30005s-3.2,1.3 -11.8,1.3l-0.1,0l-35,48l87,0l0,64l41,0l0,-64l32,0l0,64l40,0l0,-64.4c26,-1.3 44.5,-4.7 59.4,-10.3c19.3,-7.2 34.1,-17.7 44.7,-31.5s14.9,-34.9 15.8,-51.2c0.69998,-14.50008 -0.9,-33.2001 -5.4,-43.40005zm-186.5,-129.2l0.01,0l0,-1.33l27.96,0c15.73005,0 68.15,-5.24 69.02,37.57c0.88,42.81 -69.02,41.06 -69.02,41.06l-27.96,0l0,-3.3l-0.01,0l0,-74zm0,122l32,0c6.5,0 28.86,0.99 37,1.36a35.49854,35.49854 0 0 1 9.76,1.74c1.15,0.39 2.24,0.83 3.42,1.32a49.73214,49.73214 0 0 1 13.79,6.98a28.80655,28.80655 0 0 1 7.13,6.7a38.22857,38.22857 0 0 1 2.36,3.69a37.47292,37.47292 0 0 1 4.17,10.29a41.737,41.737 0 0 1 1.47,10.72c0,7.79 -1.44,14.24 -4.99,19.7c-4.81,8.06 -12.7,13.77 -21.58,17.8c-22.96,10.44 -52.53,9.7 -52.53,9.7l-32,0l0,-90z" fill="#e37a29" id="svg_50"/>
    <path stroke="null" d="m1830.27877,2597.29967c-22.96,10.44 -52.53,9.7 -52.53,9.7l-32,0l0,-6.11c13.04,-3.64 31.07,-5.89 51,-5.89a233.65913,233.65913 0 0 1 33.53,2.3z" opacity="0.1" id="svg_49"/>
    <path stroke="null" d="m1868.74874,2614.99968c0,11.05 -32.24,20 -72,20s-72,-8.95 -72,-20c0,-5.51 8.02,-10.5 21,-14.11l0,6.11l32,0s29.57,0.74 52.53,-9.7c22.87003,3.34002 38.47,10.01 38.47,17.7z" opacity="0.1" id="svg_48"/>
    <rect stroke="null" x="1775.31007" y="2490.46939" width="30.63497" height="30.68959" fill="#2f2e41" id="svg_47"/>
    <path stroke="null" d="m1786.70232,2512.17228s2.53573,8.875 -1.9018,9.509a17.32288,17.32288 0 0 0 -7.60719,3.16967l8.24112,10.77684l15.21438,0l9.509,-9.509s-12.67865,-9.509 -10.14292,-15.21437s-13.31259,1.26786 -13.31259,1.26786z" fill="#ffb9b9" id="svg_46"/>
    <path stroke="null" d="m1786.70232,2512.17228s2.53573,8.875 -1.9018,9.509a17.32288,17.32288 0 0 0 -7.60719,3.16967l8.24112,10.77684l15.21438,0l9.509,-9.509s-12.67865,-9.509 -10.14292,-15.21437s-13.31259,1.26786 -13.31259,1.26786z" opacity="0.1" id="svg_45"/>
    <polygon stroke="null" points="1790.505859375,2622.4765625 1805.0868530273438,2627.547607421875 1815.2288208007812,2628.181640625 1814.5948486328125,2619.306640625 1793.6758422851562,2613.11962890625 1790.505859375,2622.4765625 " fill="#ffb9b9" id="svg_44"/>
    <path stroke="null" d="m1809.20691,2620.57469s0,8.875 1.26786,8.875s18.384,-1.9018 23.4555,0s12.67864,-5.07146 8.875,-8.875s-10.00785,-9.509 -13.879,-8.24112s-19.71943,4.43752 -19.71943,4.43752l0.00007,3.8036z" fill="#2f2e41" id="svg_43"/>
    <path stroke="null" d="m1762.61289,2612.33357s-7.60718,15.21437 -2.53573,16.48224s10.77685,-0.63394 11.41078,-1.26787s9.509,-3.16966 10.77685,-1.90179s1.26787,-5.07146 1.26787,-5.07146l-20.91977,-8.24112z" fill="#2f2e41" id="svg_42"/>
    <path stroke="null" d="m1768.95222,2591.41381s-12.04472,16.48223 -3.16967,20.91976s51.34851,4.43752 54.51817,0s4.43753,-18.384 0,-19.6519s-51.3485,-1.26786 -51.3485,-1.26786z" fill="#2f2e41" id="svg_41"/>
    <path stroke="null" d="m1768.95222,2591.41381s-12.04472,16.48223 -3.16967,20.91976s51.34851,4.43752 54.51817,0s4.43753,-18.384 0,-19.6519s-51.3485,-1.26786 -51.3485,-1.26786z" opacity="0.2" id="svg_40"/>
    <circle stroke="null" cx="1791.77378" cy="2502.02937" r="14.58044" fill="#ffb9b9" id="svg_39"/>
    <path stroke="null" d="m1768.95222,2524.85093l12.67864,-2.53573s3.16966,10.14291 13.31258,8.24112s12.67864,-8.24112 12.67864,-8.24112s7.60719,3.16966 8.24112,3.16966s8.87505,3.16966 8.87505,5.07146s-9.509,20.91976 -9.509,20.91976l1.26786,34.23234l-46.911,-1.26787l3.16966,-33.5984l-3.80355,-25.99122z" fill="#2f69f4" id="svg_38"/>
    <path stroke="null" d="m1761.97896,2541.33316s-3.80359,33.59841 -1.26786,36.13414s12.67864,9.509 12.67864,9.509l0,-7.60719l-5.07146,-9.509l5.07146,-22.18763l-11.41078,-6.33932z" fill="#ffb9b9" id="svg_37"/>
    <path stroke="null" d="m1827.59094,2540.38226s-2.21876,34.54931 -2.21876,35.81717s-5.70539,5.70539 -7.60719,5.70539s-3.16966,-3.16966 -3.16966,-3.16966l4.43753,-5.07146l-3.16966,-25.99122l11.72774,-7.29022z" fill="#ffb9b9" id="svg_36"/>
    <path stroke="null" d="m1821.56859,2588.87808s28.52695,-15.84831 29.16088,0s-14.58044,22.18762 -14.58044,22.18762s-39.3038,11.78567 -40.88863,7.47767s-4.75449,-11.28126 -2.21876,-11.91519s5.70539,-1.9018 6.97325,-0.63393s17.11617,-9.509 17.11617,-9.509l4.43753,-7.60717z" fill="#2f2e41" id="svg_35"/>
    <path stroke="#000" d="m1834.88116,2586.97628s-5.70539,2.53573 -7.60718,4.43753s-10.14292,5.07145 -10.14292,5.07145" fill="none" stroke-miterlimit="10" stroke-width="2" opacity="0.2" id="svg_34"/>
    <path stroke="null" d="m1772.75581,2526.11879l-3.80359,-1.26786s-13.94651,14.58044 -9.509,18.384s6.97326,5.07146 8.24112,6.33932s7.60719,1.9018 7.60719,1.9018l-2.53572,-25.35726z" fill="#2f69f4" id="svg_33"/>
    <path stroke="null" d="m1819.03286,2529.28845l5.70539,1.26787s4.43752,9.509 5.70539,10.77684s-1.9018,0.63393 -3.80359,3.16966s-3.8036,6.97326 -7.60719,6.97326s-8.875,-6.33932 -8.875,-6.33932l8.875,-15.84831z" fill="#2f69f4" id="svg_32"/>
    <path stroke="null" d="m1770.22008,2594.58347s-24.08942,-17.11617 -32.33054,-4.43753s35.5002,29.79482 41.83952,32.33054s12.04471,5.07146 12.04471,5.07146s5.70539,-13.94651 5.70539,-16.48224s-4.43752,-2.53572 -5.70539,-2.53572s-6.97325,-1.26787 -8.24111,-3.16967s-13.31258,-10.77684 -13.31258,-10.77684z" fill="#2f2e41" id="svg_31"/>
    <path stroke="#000" d="m1756.90748,2590.14593s6.33933,5.07146 12.04472,6.33932s7.60718,4.43753 7.60718,4.43753" fill="none" stroke-miterlimit="10" stroke-width="2" opacity="0.2" id="svg_30"/>
    <path stroke="null" d="m1765.84715,2566.31034l0.50643,26.841a3.36009,3.36009 0 0 0 3.39725,3.2965l49.94949,-0.56123a3.36009,3.36009 0 0 0 3.31677,-3.16636l1.51614,-26.27972a3.36009,3.36009 0 0 0 -3.35452,-3.55363l-51.97206,0a3.36009,3.36009 0 0 0 -3.3595,3.42344z" fill="#575a89" id="svg_29"/>
    <path stroke="null" d="m1760.06939,2525.01066c1.36044,-3.002 3.18865,-5.81924 4.05984,-8.99785c1.0442,-3.80983 0.63756,-7.84085 0.51333,-11.78926a37.01665,37.01665 0 0 1 0.88372,-10.403a17.88521,17.88521 0 0 1 5.14221,-8.95254c6.64339,-5.93056 18.80176,-6.35642 26.91381,-3.88756c3.198,0.9733 6.60472,2.82677 7.39769,6.07421c0.11971,0.49027 0.1734,0.99547 0.30707,1.4821c0.66415,2.41785 3.13766,3.94774 4.03012,6.29093c1.15431,3.03076 -0.62556,6.32663 -0.85822,9.5614c-0.27162,3.77656 1.58487,7.34437 3.41475,10.65914c1.08781,1.97055 2.21886,4.06967 2.11089,6.31792a7.982,7.982 0 0 1 -1.09228,3.48262a13.28062,13.28062 0 0 1 -11.15615,6.395a6.99921,6.99921 0 0 1 -4.17879,-0.98656c-1.97972,-1.36319 -2.55955,-4.10818 -2.14713,-6.47618s1.61445,-4.50975 2.55626,-6.72117c0.289,-0.6786 0.54984,-1.36873 0.79026,-2.06578a14.18553,14.18553 0 1 0 -9.35726,1.58721a19.21586,19.21586 0 0 1 -0.93055,10.68479a40.34676,40.34676 0 0 1 -4.48666,7.823a10.80067,10.80067 0 0 1 -2.85833,3.19882a10.14284,10.14284 0 0 1 -2.435,1.03991c-3.58068,1.15158 -7.35129,2.07819 -11.07674,1.56014s-7.415,-2.765 -8.68447,-6.30565c-1.11228,-3.10242 -0.21881,-6.56967 1.14163,-9.57164z" fill="#2f2e41" id="svg_28"/>
    <ellipse stroke="null" cx="1791.06739" cy="2493.84255" rx="15.47356" ry="8.76835" fill="#2f2e41" id="svg_27"/>
   </g>
  </g>
 </g>
</svg>