<svg width="340" height="460" xmlns="http://www.w3.org/2000/svg">
 <title>digital currency</title>

 <g>
  <title>Layer 1</title>
  <path id="svg_3" fill="#e37a29" d="m322.5,250.85911c-5,-11.5 -12.7,-21.6 -28.1,-30.1a98.14691,98.14691 0 0 0 -25.4,-10a62.21919,62.21919 0 0 0 16.3,-11a56.36778,56.36778 0 0 0 15.6,-23.3a77.109,77.109 0 0 0 3.5,-28.2c-1.1,-16.8 -4.4,-33.1 -13.2,-44.8s-21.2,-20.7 -37.6,-27c-12.6,-4.8 -25.5,-7.8 -45.5,-8.9l0,-63.9l-40,25l0,39l-32,0l0,-41l-41,-23l0,64l-87.1,0l28,48c8.65,0.01 14.51,0.81 17.5,2.3a13.22451,13.22451 0 0 1 6.5,6c1.3,2.5 1.9,8.4 1.9,17.5l0,173.2c0,9 -0.6,14.8 -1.9,17.4s-2,4.9 -5.1,6.30005s-3.2,1.3 -11.8,1.3l-0.1,0l-35,48l87,0l0,64l41,0l0,-64l32,0l0,64l40,0l0,-64.4c26,-1.3 44.5,-4.7 59.4,-10.3c19.3,-7.2 34.1,-17.7 44.7,-31.5s14.9,-34.9 15.8,-51.2c0.69998,-14.50008 -0.9,-33.2001 -5.4,-43.40005zm-186.5,-129.2l0.01,0l0,-1.33l27.96,0c15.73005,0 68.15,-5.24 69.02,37.57c0.88,42.81 -69.02,41.06 -69.02,41.06l-27.96,0l0,-3.3l-0.01,0l0,-74zm0,122l32,0c6.5,0 28.86,0.99 37,1.36a35.49854,35.49854 0 0 1 9.76,1.74c1.15,0.39 2.24,0.83 3.42,1.32a49.73214,49.73214 0 0 1 13.79,6.98a28.80655,28.80655 0 0 1 7.13,6.7a38.22857,38.22857 0 0 1 2.36,3.69a37.47292,37.47292 0 0 1 4.17,10.29a41.737,41.737 0 0 1 1.47,10.72c0,7.79 -1.44,14.24 -4.99,19.7c-4.81,8.06 -12.7,13.77 -21.58,17.8c-22.96,10.44 -52.53,9.7 -52.53,9.7l-32,0l0,-90z"/>
 </g>
</svg>